# Blender 3.3.1
# www.blender.org
mtllib untitled.mtl
o model
v 0.281250 0.343750 -0.125000
v 0.281250 0.343750 -0.500000
v 0.281250 -0.031250 -0.125000
v 0.281250 -0.031250 -0.500000
v -0.218750 0.343750 -0.500000
v -0.218750 0.343750 -0.125000
v -0.218750 -0.031250 -0.500000
v -0.218750 -0.031250 -0.125000
v -0.218750 0.343750 -0.500000
v 0.281250 0.343750 -0.500000
v -0.218750 0.343750 -0.125000
v 0.281250 0.343750 -0.125000
v -0.218750 -0.031250 -0.125000
v 0.281250 -0.031250 -0.125000
v -0.218750 -0.031250 -0.500000
v 0.281250 -0.031250 -0.500000
v -0.218750 0.343750 -0.125000
v 0.281250 0.343750 -0.125000
v -0.218750 -0.031250 -0.125000
v 0.281250 -0.031250 -0.125000
v 0.281250 0.343750 -0.500000
v -0.218750 0.343750 -0.500000
v 0.281250 -0.031250 -0.500000
v -0.218750 -0.031250 -0.500000
v 0.156250 0.093750 -0.500000
v 0.156250 0.093750 -0.812500
v 0.156250 -0.031250 -0.500000
v 0.156250 -0.031250 -0.812500
v -0.093750 0.093750 -0.812500
v -0.093750 0.093750 -0.500000
v -0.093750 -0.031250 -0.812500
v -0.093750 -0.031250 -0.500000
v -0.093750 0.093750 -0.812500
v 0.156250 0.093750 -0.812500
v -0.093750 0.093750 -0.500000
v 0.156250 0.093750 -0.500000
v -0.093750 -0.031250 -0.500000
v 0.156250 -0.031250 -0.500000
v -0.093750 -0.031250 -0.812500
v 0.156250 -0.031250 -0.812500
v -0.093750 0.093750 -0.500000
v 0.156250 0.093750 -0.500000
v -0.093750 -0.031250 -0.500000
v 0.156250 -0.031250 -0.500000
v 0.156250 0.093750 -0.812500
v -0.093750 0.093750 -0.812500
v 0.156250 -0.031250 -0.812500
v -0.093750 -0.031250 -0.812500
v 0.268750 0.362500 -0.143750
v 0.268750 0.012500 -0.143750
v 0.268750 0.362500 0.581250
v 0.268750 0.012500 0.581250
v -0.206250 0.012500 -0.143750
v -0.206250 0.362500 -0.143750
v -0.206250 0.012500 0.581250
v -0.206250 0.362500 0.581250
v -0.206250 0.012500 -0.143750
v 0.268750 0.012500 -0.143750
v -0.206250 0.362500 -0.143750
v 0.268750 0.362500 -0.143750
v -0.206250 0.362500 0.581250
v 0.268750 0.362500 0.581250
v -0.206250 0.012500 0.581250
v 0.268750 0.012500 0.581250
v -0.206250 0.362500 -0.143750
v 0.268750 0.362500 -0.143750
v -0.206250 0.362500 0.581250
v 0.268750 0.362500 0.581250
v 0.268750 0.012500 -0.143750
v -0.206250 0.012500 -0.143750
v 0.268750 0.012500 0.581250
v -0.206250 0.012500 0.581250
v 0.437562 0.062500 0.500000
v 0.437562 0.062500 0.375000
v 0.437562 -0.000000 0.500000
v 0.437562 -0.000000 0.375000
v 0.187562 0.062500 0.375000
v 0.187562 0.062500 0.500000
v 0.187562 -0.000000 0.375000
v 0.187562 -0.000000 0.500000
v 0.187562 0.062500 0.375000
v 0.437562 0.062500 0.375000
v 0.187562 0.062500 0.500000
v 0.437562 0.062500 0.500000
v 0.187562 -0.000000 0.500000
v 0.437562 -0.000000 0.500000
v 0.187562 -0.000000 0.375000
v 0.437562 -0.000000 0.375000
v 0.187562 0.062500 0.500000
v 0.437562 0.062500 0.500000
v 0.187562 -0.000000 0.500000
v 0.437562 -0.000000 0.500000
v 0.437562 0.062500 0.375000
v 0.187562 0.062500 0.375000
v 0.437562 -0.000000 0.375000
v 0.187562 -0.000000 0.375000
v -0.187562 0.062500 0.500000
v -0.187562 0.062500 0.375000
v -0.187562 -0.000000 0.500000
v -0.187562 -0.000000 0.375000
v -0.375062 0.062500 0.375000
v -0.375062 0.062500 0.500000
v -0.375062 -0.000000 0.375000
v -0.375062 -0.000000 0.500000
v -0.375062 0.062500 0.375000
v -0.187562 0.062500 0.375000
v -0.375062 0.062500 0.500000
v -0.187562 0.062500 0.500000
v -0.375062 -0.000000 0.500000
v -0.187562 -0.000000 0.500000
v -0.375062 -0.000000 0.375000
v -0.187562 -0.000000 0.375000
v -0.375062 0.062500 0.500000
v -0.187562 0.062500 0.500000
v -0.375062 -0.000000 0.500000
v -0.187562 -0.000000 0.500000
v -0.187562 0.062500 0.375000
v -0.375062 0.062500 0.375000
v -0.187562 -0.000000 0.375000
v -0.375062 -0.000000 0.375000
v 0.437562 0.062500 0.062500
v 0.437562 0.062500 -0.062500
v 0.437562 -0.000000 0.062500
v 0.437562 0.000000 -0.062500
v 0.250062 0.062500 -0.062500
v 0.250062 0.062500 0.062500
v 0.250062 0.000000 -0.062500
v 0.250062 -0.000000 0.062500
v 0.250062 0.062500 -0.062500
v 0.437562 0.062500 -0.062500
v 0.250062 0.062500 0.062500
v 0.437562 0.062500 0.062500
v 0.250062 -0.000000 0.062500
v 0.437562 -0.000000 0.062500
v 0.250062 0.000000 -0.062500
v 0.437562 0.000000 -0.062500
v 0.250062 0.062500 0.062500
v 0.437562 0.062500 0.062500
v 0.250062 -0.000000 0.062500
v 0.437562 -0.000000 0.062500
v 0.437562 0.062500 -0.062500
v 0.250062 0.062500 -0.062500
v 0.437562 0.000000 -0.062500
v 0.250062 0.000000 -0.062500
v -0.187562 0.062500 0.062500
v -0.187562 0.062500 -0.062500
v -0.187562 -0.000000 0.062500
v -0.187562 0.000000 -0.062500
v -0.375062 0.062500 -0.062500
v -0.375062 0.062500 0.062500
v -0.375062 0.000000 -0.062500
v -0.375062 -0.000000 0.062500
v -0.375062 0.062500 -0.062500
v -0.187562 0.062500 -0.062500
v -0.375062 0.062500 0.062500
v -0.187562 0.062500 0.062500
v -0.375062 -0.000000 0.062500
v -0.187562 -0.000000 0.062500
v -0.375062 0.000000 -0.062500
v -0.187562 0.000000 -0.062500
v -0.375062 0.062500 0.062500
v -0.187562 0.062500 0.062500
v -0.375062 -0.000000 0.062500
v -0.187562 -0.000000 0.062500
v -0.187562 0.062500 -0.062500
v -0.375062 0.062500 -0.062500
v -0.187562 0.000000 -0.062500
v -0.375062 0.000000 -0.062500
v 0.187500 0.250000 0.562500
v 0.187500 0.125000 0.562500
v 0.187500 0.250000 1.125000
v 0.187500 0.125000 1.125000
v -0.125000 0.125000 0.562500
v -0.125000 0.250000 0.562500
v -0.125000 0.125000 1.125000
v -0.125000 0.250000 1.125000
v -0.125000 0.125000 0.562500
v 0.187500 0.125000 0.562500
v -0.125000 0.250000 0.562500
v 0.187500 0.250000 0.562500
v -0.125000 0.250000 1.125000
v 0.187500 0.250000 1.125000
v -0.125000 0.125000 1.125000
v 0.187500 0.125000 1.125000
v -0.125000 0.250000 0.562500
v 0.187500 0.250000 0.562500
v -0.125000 0.250000 1.125000
v 0.187500 0.250000 1.125000
v 0.187500 0.125000 0.562500
v -0.125000 0.125000 0.562500
v 0.187500 0.125000 1.125000
v -0.125000 0.125000 1.125000
vn 1.0000 -0.0000 -0.0000
vn -1.0000 -0.0000 -0.0000
vn -0.0000 1.0000 -0.0000
vn -0.0000 -1.0000 -0.0000
vn -0.0000 -0.0000 1.0000
vn -0.0000 -0.0000 -1.0000
vt 0.015869 -0.827881
vt 0.109131 -0.827881
vt 0.015869 -0.734619
vt 0.109131 -0.734619
vt 0.234619 -0.827881
vt 0.327881 -0.827881
vt 0.234619 -0.734619
vt 0.327881 -0.734619
vt 0.234131 -0.828369
vt 0.109619 -0.828369
vt 0.234131 -0.921631
vt 0.109619 -0.921631
vt 0.359131 -0.921631
vt 0.234619 -0.921631
vt 0.359131 -0.828369
vt 0.234619 -0.828369
vt 0.328369 -0.827881
vt 0.452881 -0.827881
vt 0.328369 -0.734619
vt 0.452881 -0.734619
vt 0.109619 -0.827881
vt 0.234131 -0.827881
vt 0.109619 -0.734619
vt 0.234131 -0.734619
vt 0.234619 -0.281006
vt 0.312256 -0.281006
vt 0.234619 -0.250244
vt 0.312256 -0.250244
vt 0.375244 -0.281006
vt 0.452881 -0.281006
vt 0.375244 -0.250244
vt 0.452881 -0.250244
vt 0.374756 -0.281494
vt 0.312744 -0.281494
vt 0.374756 -0.359131
vt 0.312744 -0.359131
vt 0.437256 -0.359131
vt 0.375244 -0.359131
vt 0.437256 -0.281494
vt 0.375244 -0.281494
vt 0.453369 -0.281006
vt 0.515381 -0.281006
vt 0.453369 -0.250244
vt 0.515381 -0.250244
vt 0.312744 -0.281006
vt 0.374756 -0.281006
vt 0.312744 -0.250244
vt 0.374756 -0.250244
vt 0.375244 -0.687256
vt 0.452881 -0.687256
vt 0.375244 -0.515869
vt 0.452881 -0.515869
vt 0.562744 -0.687256
vt 0.640381 -0.687256
vt 0.562744 -0.515869
vt 0.640381 -0.515869
vt 0.562256 -0.687744
vt 0.453369 -0.687744
vt 0.562256 -0.765381
vt 0.453369 -0.765381
vt 0.671631 -0.765381
vt 0.562744 -0.765381
vt 0.671631 -0.687744
vt 0.562744 -0.687744
vt 0.640869 -0.687256
vt 0.749756 -0.687256
vt 0.640869 -0.515869
vt 0.749756 -0.515869
vt 0.453369 -0.687256
vt 0.562256 -0.687256
vt 0.453369 -0.515869
vt 0.562256 -0.515869
vt 0.562744 -0.265381
vt 0.593506 -0.265381
vt 0.562744 -0.250244
vt 0.593506 -0.250244
vt 0.656494 -0.265381
vt 0.687256 -0.265381
vt 0.656494 -0.250244
vt 0.687256 -0.250244
vt 0.656006 -0.265869
vt 0.593994 -0.265869
vt 0.656006 -0.296631
vt 0.593994 -0.296631
vt 0.718506 -0.296631
vt 0.656494 -0.296631
vt 0.718506 -0.265869
vt 0.656494 -0.265869
vt 0.687744 -0.265381
vt 0.749756 -0.265381
vt 0.687744 -0.250244
vt 0.749756 -0.250244
vt 0.593994 -0.265381
vt 0.656006 -0.265381
vt 0.593994 -0.250244
vt 0.656006 -0.250244
vt 0.593994 -0.265381
vt 0.624756 -0.265381
vt 0.593994 -0.250244
vt 0.624756 -0.250244
vt 0.672119 -0.265381
vt 0.702881 -0.265381
vt 0.672119 -0.250244
vt 0.702881 -0.250244
vt 0.671631 -0.265869
vt 0.625244 -0.265869
vt 0.671631 -0.296631
vt 0.625244 -0.296631
vt 0.718506 -0.296631
vt 0.672119 -0.296631
vt 0.718506 -0.265869
vt 0.672119 -0.265869
vt 0.703369 -0.265381
vt 0.749756 -0.265381
vt 0.703369 -0.250244
vt 0.749756 -0.250244
vt 0.625244 -0.265381
vt 0.671631 -0.265381
vt 0.625244 -0.250244
vt 0.671631 -0.250244
vt 0.593994 -0.265381
vt 0.624756 -0.265381
vt 0.593994 -0.250244
vt 0.624756 -0.250244
vt 0.672119 -0.265381
vt 0.702881 -0.265381
vt 0.672119 -0.250244
vt 0.702881 -0.250244
vt 0.671631 -0.265869
vt 0.625244 -0.265869
vt 0.671631 -0.296631
vt 0.625244 -0.296631
vt 0.718506 -0.296631
vt 0.672119 -0.296631
vt 0.718506 -0.265869
vt 0.672119 -0.265869
vt 0.703369 -0.265381
vt 0.749756 -0.265381
vt 0.703369 -0.250244
vt 0.749756 -0.250244
vt 0.625244 -0.265381
vt 0.671631 -0.265381
vt 0.625244 -0.250244
vt 0.671631 -0.250244
vt 0.593994 -0.265381
vt 0.624756 -0.265381
vt 0.593994 -0.250244
vt 0.624756 -0.250244
vt 0.672119 -0.265381
vt 0.702881 -0.265381
vt 0.672119 -0.250244
vt 0.702881 -0.250244
vt 0.671631 -0.265869
vt 0.625244 -0.265869
vt 0.671631 -0.296631
vt 0.625244 -0.296631
vt 0.718506 -0.296631
vt 0.672119 -0.296631
vt 0.718506 -0.265869
vt 0.672119 -0.265869
vt 0.703369 -0.265381
vt 0.749756 -0.265381
vt 0.703369 -0.250244
vt 0.749756 -0.250244
vt 0.625244 -0.265381
vt 0.671631 -0.265381
vt 0.625244 -0.250244
vt 0.671631 -0.250244
vt 0.265869 -0.390381
vt 0.296631 -0.390381
vt 0.265869 -0.250244
vt 0.296631 -0.250244
vt 0.375244 -0.390381
vt 0.406006 -0.390381
vt 0.375244 -0.250244
vt 0.406006 -0.250244
vt 0.374756 -0.390869
vt 0.297119 -0.390869
vt 0.374756 -0.421631
vt 0.297119 -0.421631
vt 0.452881 -0.421631
vt 0.375244 -0.421631
vt 0.452881 -0.390869
vt 0.375244 -0.390869
vt 0.406494 -0.390381
vt 0.484131 -0.390381
vt 0.406494 -0.250244
vt 0.484131 -0.250244
vt 0.297119 -0.390381
vt 0.374756 -0.390381
vt 0.297119 -0.250244
vt 0.374756 -0.250244
s 1
usemtl mat_30970421
f 1/1/1 3/3/1 2/2/1
f 3/3/1 4/4/1 2/2/1
f 5/5/2 7/7/2 6/6/2
f 7/7/2 8/8/2 6/6/2
f 9/9/3 11/11/3 10/10/3
f 11/11/3 12/12/3 10/10/3
f 13/13/4 15/15/4 14/14/4
f 15/15/4 16/16/4 14/14/4
f 17/17/5 19/19/5 18/18/5
f 19/19/5 20/20/5 18/18/5
f 21/21/6 23/23/6 22/22/6
f 23/23/6 24/24/6 22/22/6
usemtl mat_35912234
f 25/25/1 27/27/1 26/26/1
f 27/27/1 28/28/1 26/26/1
f 29/29/2 31/31/2 30/30/2
f 31/31/2 32/32/2 30/30/2
f 33/33/3 35/35/3 34/34/3
f 35/35/3 36/36/3 34/34/3
f 37/37/4 39/39/4 38/38/4
f 39/39/4 40/40/4 38/38/4
f 41/41/5 43/43/5 42/42/5
f 43/43/5 44/44/5 42/42/5
f 45/45/6 47/47/6 46/46/6
f 47/47/6 48/48/6 46/46/6
usemtl mat_13778652
f 49/49/1 51/51/1 50/50/1
f 51/51/1 52/52/1 50/50/1
f 53/53/2 55/55/2 54/54/2
f 55/55/2 56/56/2 54/54/2
f 57/57/6 59/59/6 58/58/6
f 59/59/6 60/60/6 58/58/6
f 61/61/5 63/63/5 62/62/5
f 63/63/5 64/64/5 62/62/5
f 65/65/3 67/67/3 66/66/3
f 67/67/3 68/68/3 66/66/3
f 69/69/4 71/71/4 70/70/4
f 71/71/4 72/72/4 70/70/4
usemtl mat_54323318
f 73/73/1 75/75/1 74/74/1
f 75/75/1 76/76/1 74/74/1
f 77/77/2 79/79/2 78/78/2
f 79/79/2 80/80/2 78/78/2
f 81/81/3 83/83/3 82/82/3
f 83/83/3 84/84/3 82/82/3
f 85/85/4 87/87/4 86/86/4
f 87/87/4 88/88/4 86/86/4
f 89/89/5 91/91/5 90/90/5
f 91/91/5 92/92/5 90/90/5
f 93/93/6 95/95/6 94/94/6
f 95/95/6 96/96/6 94/94/6
usemtl mat_22145964
f 97/97/1 99/99/1 98/98/1
f 99/99/1 100/100/1 98/98/1
f 101/101/2 103/103/2 102/102/2
f 103/103/2 104/104/2 102/102/2
f 105/105/3 107/107/3 106/106/3
f 107/107/3 108/108/3 106/106/3
f 109/109/4 111/111/4 110/110/4
f 111/111/4 112/112/4 110/110/4
f 113/113/5 115/115/5 114/114/5
f 115/115/5 116/116/5 114/114/5
f 117/117/6 119/119/6 118/118/6
f 119/119/6 120/120/6 118/118/6
usemtl mat_27517700
f 121/121/1 123/123/1 122/122/1
f 123/123/1 124/124/1 122/122/1
f 125/125/2 127/127/2 126/126/2
f 127/127/2 128/128/2 126/126/2
f 129/129/3 131/131/3 130/130/3
f 131/131/3 132/132/3 130/130/3
f 133/133/4 135/135/4 134/134/4
f 135/135/4 136/136/4 134/134/4
f 137/137/5 139/139/5 138/138/5
f 139/139/5 140/140/5 138/138/5
f 141/141/6 143/143/6 142/142/6
f 143/143/6 144/144/6 142/142/6
usemtl mat_38488131
f 145/145/1 147/147/1 146/146/1
f 147/147/1 148/148/1 146/146/1
f 149/149/2 151/151/2 150/150/2
f 151/151/2 152/152/2 150/150/2
f 153/153/3 155/155/3 154/154/3
f 155/155/3 156/156/3 154/154/3
f 157/157/4 159/159/4 158/158/4
f 159/159/4 160/160/4 158/158/4
f 161/161/5 163/163/5 162/162/5
f 163/163/5 164/164/5 162/162/5
f 165/165/6 167/167/6 166/166/6
f 167/167/6 168/168/6 166/166/6
usemtl mat_10796121
f 169/169/1 171/171/1 170/170/1
f 171/171/1 172/172/1 170/170/1
f 173/173/2 175/175/2 174/174/2
f 175/175/2 176/176/2 174/174/2
f 177/177/6 179/179/6 178/178/6
f 179/179/6 180/180/6 178/178/6
f 181/181/5 183/183/5 182/182/5
f 183/183/5 184/184/5 182/182/5
f 185/185/3 187/187/3 186/186/3
f 187/187/3 188/188/3 186/186/3
f 189/189/4 191/191/4 190/190/4
f 191/191/4 192/192/4 190/190/4
